<?xml version="1.0" encoding="UTF-8"?>
<svg id="Capa_2" data-name="Capa 2" xmlns="http://www.w3.org/2000/svg" viewBox="0 0 332.94 347.89">
  <g id="Capa_1-2" data-name="Capa 1">
    <path d="m313.96,40.04c-12.46-5.77-25.69-5.27-38.99-4.85.01-6.59.03-13.17.07-19.76.04-7.38-2.3-12.53-9.15-15.43H67.47c-6.83,2.91-9.2,8.04-9.15,15.43.04,6.43.05,12.86.07,19.3-8.85.36-17.55.23-26.07,1.42C15.32,38.52,3.48,47.22.48,65.25c-.04.23-.32.42-.48.62v13.01c.21.5.53.98.6,1.49,2.78,19.84,10.21,38.06,19.66,55.52,9.41,17.38,20.61,33.42,36.45,45.69,5.43,4.21,11.27,7.73,18.77,9.51-.6-1.1-1.17-2.21-1.74-3.31,12.93,21.93,32.98,38.25,56.74,46.57v41.04c-1.7.23-2.9.38-4.1.56-17.29,2.59-29.61,14.45-31.46,31.72-1.03,9.65-.67,19.49-.31,29.22.24,6.51,5.66,10.94,12.41,10.95,39.7.05,79.4.05,119.09,0,7.5,0,12.65-4.95,12.79-12.35.16-8.26.27-16.54-.06-24.79-.71-17.99-13.42-31.92-31.24-34.65-1.55-.24-3.1-.53-4.89-.84v-40.63c22.66-7.99,42.03-23.6,54.97-43.5,8.75-2.5,15.71-6.6,21.62-12.14,29.5-27.67,47.07-61.78,53.12-101.62,2.6-17.14-4.79-30.96-18.47-37.3ZM31.49,103.66c-4.23-10.73-7.74-21.69-7.23-33.46.24-5.46,2.07-7.86,7.37-9.28,3.11-.83,6.37-1.41,9.58-1.53,5.68-.22,11.38-.1,17.22-.08,0,23.72-.03,47.44.1,71.16.04,7.47.52,15.07,1.95,22.39-12.61-14.66-21.93-31.29-28.99-49.21Zm276.34-22.8c-5.31,26.62-17.64,49.82-34.54,70.77.93-5.33,1.44-10.76,1.5-16.28.27-25.4.2-50.81.17-76.22,2.27-.03,4.43-.07,6.58.04,5.8.29,11.66.31,17.39,1.19,7.41,1.13,9.69,4.18,9.63,11.61-.02,2.97-.16,5.99-.74,8.89Z"/>
  </g>
</svg>