<svg xmlns="http://www.w3.org/2000/svg" data-name="Capa 2" viewBox="0 0 444.14 444.14"><path d="M223.5 0c3.83 1.7 5.5 4.7 6.29 8.81 3.7 19.24 7.75 38.41 11.48 57.65.57 2.94 1.59 4.07 4.65 4.53 64.99 9.78 116.21 60.96 126.09 125.99.45 2.97 1.39 4.15 4.44 4.72 19.91 3.75 39.77 7.74 59.63 11.7 5.88 1.17 8.2 3.59 8.05 8.31-.16 5.11-3.35 7.05-7.96 7.94-19.89 3.83-39.73 7.89-59.63 11.65-2.97.56-4.06 1.61-4.52 4.64-10.03 65.23-60.93 116.15-126.03 126.07-3.01.46-4.13 1.48-4.7 4.48-3.77 19.91-7.82 39.76-11.64 59.65-.88 4.61-2.79 7.81-7.91 7.99-4.72.16-7.18-2.2-8.33-8.02-3.94-19.87-7.93-39.74-11.69-59.64-.57-3.01-1.72-4.01-4.71-4.46-64.98-9.84-116.26-61.14-126.02-126.08-.46-3.06-1.59-4.12-4.51-4.69-19.23-3.74-38.4-7.8-57.64-11.49-4.14-.79-7.12-2.43-8.83-6.26v-3.99c1.7-3.84 4.69-5.46 8.81-6.25 19.22-3.68 38.37-7.76 57.58-11.46 3.26-.63 4.17-1.99 4.63-5.12 9.51-64.21 61.35-116.05 125.65-125.65 3.12-.47 4.46-1.37 5.09-4.65 3.68-19.22 7.75-38.37 11.45-57.59.79-4.11 2.45-7.11 6.29-8.8h3.99Zm-26.95 96.49c-50.52 7.73-93.55 53.34-99.9 100.07 22.36-4.68 44.59-9.33 67.38-14.09-8.43-12.65-16.45-24.44-24.13-36.45-1.19-1.86-1.98-5.46-.99-6.94 2.13-3.19 4.99-.72 7.3.8 7.9 5.21 15.75 10.48 23.63 15.72 4.06 2.7 8.13 5.38 12.66 8.38 4.78-22.95 9.4-45.13 14.05-67.48Zm150.03 100.06c-4.52-44.96-61.15-102.09-98.61-99.56 4.16 22.17 8.3 44.29 12.56 67.03 2.96-1.96 5.43-3.58 7.88-5.21 9.95-6.62 19.82-13.35 29.91-19.76 1.43-.91 3.86-.25 5.83-.31.01 1.96.34 4-.06 5.87-.29 1.36-1.55 2.51-2.38 3.75-7.43 11.17-14.86 22.34-22.68 34.09 22.74 4.75 44.91 9.37 67.55 14.1Zm-182.54 63.94c-23-4.29-45.19-8.43-67.77-12.64 10.22 55.44 58.95 92.91 100.27 98.56-4.67-22.38-9.32-44.61-14.08-67.39-7.49 4.99-14.24 9.49-21 13.98-5.67 3.77-11.24 7.68-17.08 11.17-1.36.81-4.63.87-5.2.03-.93-1.36-.73-3.83-.31-5.68.35-1.51 1.71-2.8 2.63-4.18 7.34-11.03 14.69-22.07 22.54-33.86ZM346.5 247.9c-22.66 4.25-44.76 8.4-67.49 12.67 6.99 10.49 13.61 20.4 20.21 30.32 1.84 2.76 3.9 5.43 5.3 8.41.61 1.31.4 3.9-.52 4.78-.92.89-3.4.94-4.82.38-2.27-.89-4.23-2.58-6.3-3.95-10.61-7.06-21.22-14.12-32.35-21.54-4.27 22.85-8.42 45.08-12.63 67.58 47.65-7.8 90.92-50.93 98.61-98.65Z" data-name="Capa 1"/></svg>