<svg xmlns="http://www.w3.org/2000/svg" data-name="Capa 2" viewBox="0 0 346.17 378.36"><path d="M279.74 281.49c3.15 6.17 6.68 11.5 8.7 17.35 4.54 13.08-.85 24.37-13.58 29.94-9.89 4.33-20.22 4.01-30.61 2.64-2.39-.31-4.74-.84-7.72-1.37v24.15c-.01 12.43-4.83 20.22-14.18 22.95-11.81 3.45-21.29-.43-28.48-12.37-4.29 8.91-11.16 13.36-20.71 13.37-9.46 0-16.33-4.14-20.89-13.44-4.95 9.84-12.59 14.05-22.86 13.39-11.75-.75-19.58-8.81-19.8-20.59-.16-8.75-.12-17.5-.18-26.26 0-.18-.17-.36.4.77-9.12 0-17.56.42-25.95-.09-14.78-.9-26.2-9.07-27.09-20.86-.5-6.65 2.39-13.68 4.43-20.33.91-2.98 3.47-5.45 5.64-8.68-4.26-3.47-8.74-6.84-12.92-10.56C15.72 237.47-4.17 195.46.73 143.76 5.53 93.22 32.07 55.64 73.97 28.5c67.68-43.87 161.25-36.34 221.28 17.37 71.85 64.27 66.99 173.23-10.33 231.63-1.78 1.34-3.53 2.71-5.18 3.99Zm-86.52-42.17c11.95 19.88 28.75 31.31 51.57 31 25.72-.35 44.04-13.65 53.89-37.15 9.65-23.02 5.9-44.79-9.34-65.23-32.23 23.94-64 47.53-96.12 71.38Zm-40.6.46c-33.74-21.61-67.06-42.96-100.91-64.64-11.67 20.99-12.89 41.88-2.1 62.69 11.03 21.28 29.06 32.87 53.2 32.5 22.02-.34 38.31-11.42 49.82-30.55Zm20.66 51.84c2.3 3.28 3.64 6.25 5.9 8.14 2.61 2.18 6.33 5.09 9 4.61 3.09-.56 7.05-4.03 7.96-7.05 1.24-4.09 1.34-9.67-.55-13.34-3.97-7.72-9.23-14.85-14.56-21.76-4.49-5.82-11.46-5.77-15.58-.16-5.29 7.21-10.34 14.62-15.07 22.21-3.4 5.46-2.38 12.23 1.78 17.03 4.66 5.39 9.97 5.4 14.37-.14 2.25-2.83 4.2-5.9 6.74-9.53Z" data-name="Capa 1"/></svg>