<?xml version="1.0" encoding="UTF-8"?>
<svg id="Capa_2" data-name="Capa 2" xmlns="http://www.w3.org/2000/svg" viewBox="0 0 353.53 299.92">
  <g id="Capa_1-2" data-name="Capa 1">
    <path d="m175.88,299.92h-2.28c-.81-.53-1.56-1.18-2.43-1.58-20.1-9.15-39.4-19.77-57.82-31.95-28.72-19-54.97-40.8-76.17-68.19C20.11,176.16,7.64,151.91,2.73,124.22c-1.3-7.32-1.84-14.78-2.73-22.18,0-2.54,0-5.07,0-7.61.22-1.36.55-2.71.64-4.08.97-15.04,5.22-29.12,12.55-42.25C45.78-10.27,123.16-16.67,164.7,35.66c4.51,5.68,8.09,12.09,11.62,17.42,5.85-7.87,11.18-16.75,18.14-24.09C216.17,6.13,243.04-3.94,274.34,1.4c35.19,6,58.76,27.19,71.96,59.84,10.28,25.42,8.62,51.39,1.11,77.19-8.36,28.76-24.52,52.96-44.8,74.57-30.04,32-65.86,56.13-104.68,76.08-7.29,3.75-14.7,7.24-22.06,10.85Z"/>
  </g>
</svg>